# xmcd CD database file
#
# Track frame offsets:
#	150
#	16187
#	30642
#	43077
#	61995
#	80050
#	95860
#	110787
#	131395
#	134275
#	149977
#	166060
#	183315
#
# Disc length: 2623 seconds
#
# Revision: 0
# Processed by: cddbd v1.5.2PL0 Copyright (c) Steve Scherf et al.
# Submitted via: CDex 1.51
#
DISCID=bb0a3d0d
DTITLE=Dion - Son of Skip James
DYEAR=2007
DGENRE=Blues
TTITLE0=Nadine
TTITLE1=My Babe
TTITLE2=Hoodoo Man Blues
TTITLE3=Drop Down Mama
TTITLE4=Hoochie Coochie Man
TTITLE5=Baby I'm in the Mood
TTITLE6=I'm a Guitar King
TTITLE7=The Thunderer
TTITLE8=Interlude - Spoken Word
TTITLE9=Son of Skip James
TTITLE10=Preachin' Blues
TTITLE11=If I Had Possession (Over Judgement Day)
TTITLE12=Devil Got My Woman
EXTD=YEAR: 2007
EXTT0=
EXTT1=
EXTT2=
EXTT3=
EXTT4=
EXTT5=
EXTT6=
EXTT7=
EXTT8=
EXTT9=
EXTT10=
EXTT11=
EXTT12=
PLAYORDER=
